<?xml version="1.0" standalone="no"?>
<!DOCTYPE svg PUBLIC "-//W3C//DTD SVG 20010904//EN"
 "http://www.w3.org/TR/2001/REC-SVG-20010904/DTD/svg10.dtd">
<svg version="1.0" xmlns="http://www.w3.org/2000/svg"
 width="512.000000pt" height="512.000000pt" viewBox="0 0 512.000000 512.000000"
 preserveAspectRatio="xMidYMid meet">
<metadata>
Created by potrace 1.11, written by Peter Selinger 2001-2013
</metadata>
<g transform="translate(0.000000,512.000000) scale(0.100000,-0.100000)"
fill="#000000" stroke="none">
<path d="M1258 5105 c-193 -40 -348 -180 -428 -386 -62 -160 -91 -323 -111
-623 -15 -226 10 -434 92 -771 98 -407 237 -732 362 -854 l35 -33 289 70 c158
39 349 85 423 102 157 35 194 51 213 94 17 35 59 176 76 251 69 305 81 818 25
1095 -47 231 -105 416 -183 575 -120 245 -275 403 -458 466 -77 26 -244 34
-335 14z"/>
<path d="M3614 3921 c-109 -14 -242 -88 -346 -193 -162 -165 -287 -439 -367
-805 -45 -205 -55 -330 -48 -602 8 -311 36 -511 99 -711 35 -110 49 -134 86
-149 15 -6 158 -42 317 -80 160 -38 350 -84 422 -102 l133 -33 36 34 c155 150
328 608 417 1106 52 291 55 469 12 795 -54 410 -216 655 -477 723 -70 18 -207
26 -284 17z"/>
<path d="M2065 2444 c-38 -14 -229 -72 -424 -130 -195 -57 -356 -105 -357
-107 -2 -2 4 -54 12 -117 56 -437 224 -742 471 -857 167 -77 357 -40 487 96
220 232 202 637 -46 1053 -29 48 -57 87 -63 87 -5 0 -41 -12 -80 -25z"/>
<path d="M2929 1217 c-100 -155 -186 -376 -210 -536 -49 -338 117 -626 389
-673 240 -41 484 145 613 467 43 108 84 275 103 420 8 65 14 120 13 121 -1 1
-166 50 -366 109 -200 59 -395 118 -433 131 l-69 23 -40 -62z"/>
</g>
</svg>
